<svg width="249" height="211" viewBox="0 0 249 211" fill="none" xmlns="http://www.w3.org/2000/svg">
<path d="M228.614 150.213L230.231 153.306L228.614 150.213ZM245.037 144.41C245.613 142.571 244.589 140.613 242.749 140.036L212.775 130.646C210.936 130.069 208.977 131.093 208.401 132.933C207.825 134.772 208.849 136.73 210.688 137.307L237.332 145.654L228.985 172.298C228.409 174.137 229.432 176.096 231.272 176.672C233.111 177.248 235.07 176.224 235.646 174.385L245.037 144.41ZM11.6925 8.07003C11.804 6.14572 10.3344 4.49537 8.41012 4.38388C6.48581 4.27239 4.83546 5.74198 4.72397 7.6663L11.6925 8.07003ZM4.5054 21.2436C4.55585 23.1705 6.1588 24.6917 8.08568 24.6412C10.0126 24.5908 11.5337 22.9878 11.4833 21.061L4.5054 21.2436ZM14.405 46.7876C14.0196 44.899 12.1761 43.6804 10.2875 44.0659C8.39887 44.4513 7.1803 46.2948 7.56574 48.1834L14.405 46.7876ZM15.3531 74.172C16.0703 75.9611 18.1022 76.8301 19.8913 76.1129C21.6804 75.3956 22.5494 73.3638 21.8322 71.5747L15.3531 74.172ZM33.5776 94.6262C32.5523 92.994 30.398 92.502 28.7657 93.5272C27.1335 94.5525 26.6415 96.7069 27.6668 98.3391L33.5776 94.6262ZM44.069 119.939C45.3652 121.366 47.5725 121.471 48.9991 120.175C50.4258 118.879 50.5316 116.672 49.2354 115.245L44.069 119.939ZM68.2533 132.83C66.7301 131.648 64.5378 131.925 63.3565 133.449C62.1753 134.972 62.4524 137.164 63.9756 138.345L68.2533 132.83ZM86.7469 153.052C88.4501 153.954 90.5625 153.305 91.4649 151.602C92.3673 149.899 91.7182 147.786 90.0149 146.884L86.7469 153.052ZM113.866 156.985C112.032 156.391 110.064 157.395 109.469 159.228C108.875 161.062 109.879 163.03 111.712 163.625L113.866 156.985ZM138.147 169.691C140.057 169.954 141.818 168.619 142.081 166.71C142.344 164.8 141.009 163.039 139.1 162.776L138.147 169.691ZM164.942 164C163.017 164.082 161.522 165.71 161.604 167.635C161.687 169.561 163.314 171.056 165.24 170.973L164.942 164ZM192.132 167.381C194.011 166.956 195.191 165.087 194.765 163.207C194.339 161.327 192.47 160.148 190.591 160.573L192.132 167.381ZM215.242 152.654C213.465 153.401 212.629 155.447 213.376 157.224C214.123 159.001 216.168 159.836 217.945 159.09L215.242 152.654ZM233.504 151.594C235.212 150.701 235.873 148.592 234.98 146.884C234.087 145.176 231.978 144.515 230.27 145.408L233.504 151.594ZM236.816 141.986C235.108 142.879 234.447 144.987 235.34 146.696C236.233 148.404 238.342 149.064 240.05 148.171L236.816 141.986ZM4.72397 7.6663C4.45851 12.2482 4.38843 16.7759 4.5054 21.2436L11.4833 21.061C11.3714 16.7896 11.4383 12.4575 11.6925 8.07003L4.72397 7.6663ZM7.56574 48.1834C9.4064 57.2025 12.0308 65.8842 15.3531 74.172L21.8322 71.5747C18.6642 63.6718 16.1611 55.3921 14.405 46.7876L7.56574 48.1834ZM27.6668 98.3391C32.5095 106.049 38.0093 113.269 44.069 119.939L49.2354 115.245C43.4482 108.875 38.1984 101.982 33.5776 94.6262L27.6668 98.3391ZM63.9756 138.345C71.1269 143.891 78.7502 148.815 86.7469 153.052L90.0149 146.884C82.3729 142.835 75.0874 138.13 68.2533 132.83L63.9756 138.345ZM111.712 163.625C120.284 166.405 129.128 168.448 138.147 169.691L139.1 162.776C130.494 161.59 122.052 159.64 113.866 156.985L111.712 163.625ZM165.24 170.973C174.161 170.593 183.154 169.414 192.132 167.381L190.591 160.573C182.025 162.512 173.449 163.636 164.942 164L165.24 170.973ZM217.945 159.09C222.066 157.358 226.164 155.432 230.231 153.306L226.997 147.12C223.102 149.156 219.181 150.999 215.242 152.654L217.945 159.09ZM230.231 153.306L233.504 151.594L230.27 145.408L226.997 147.12L230.231 153.306ZM240.05 148.171L243.323 146.46L240.089 140.274L236.816 141.986L240.05 148.171ZM228.614 150.213L231.848 156.398L228.614 150.213ZM248.367 145.454C249.52 141.775 247.472 137.858 243.793 136.706L183.844 117.924C180.165 116.772 176.248 118.82 175.096 122.499C173.943 126.177 175.991 130.094 179.67 131.246L232.958 147.941L216.264 201.229C215.111 204.908 217.159 208.824 220.838 209.977C224.516 211.13 228.433 209.082 229.586 205.403L248.367 145.454ZM15.1768 8.2719C15.3998 4.42327 12.4606 1.12258 8.61199 0.8996C4.76336 0.676622 1.46266 3.61579 1.23969 7.46443L15.1768 8.2719ZM1.01647 21.335C1.11737 25.1888 4.32326 28.2311 8.17703 28.1302C12.0308 28.0293 15.0731 24.8234 14.9722 20.9696L1.01647 21.335ZM17.8247 46.0897C17.0538 42.3125 13.3668 39.8754 9.58959 40.6462C5.81237 41.4171 3.37523 45.1041 4.1461 48.8813L17.8247 46.0897ZM12.1136 75.4706C13.548 79.0489 17.6116 80.7868 21.1899 79.3524C24.7682 77.9179 26.5061 73.8543 25.0717 70.2761L12.1136 75.4706ZM36.5331 92.7698C34.4825 89.5053 30.1738 88.5212 26.9093 90.5718C23.6448 92.6224 22.6608 96.9311 24.7113 100.196L36.5331 92.7698ZM41.4858 122.286C44.0782 125.139 48.4928 125.351 51.3461 122.758C54.1994 120.166 54.4109 115.751 51.8185 112.898L41.4858 122.286ZM70.3922 130.072C67.3458 127.709 62.9611 128.263 60.5986 131.31C58.236 134.356 58.7904 138.741 61.8367 141.103L70.3922 130.072ZM85.1129 156.136C88.5193 157.941 92.744 156.642 94.5489 153.236C96.3538 149.829 95.0554 145.605 91.649 143.8L85.1129 156.136ZM114.942 153.665C111.275 152.476 107.338 154.485 106.149 158.152C104.96 161.819 106.969 165.756 110.636 166.945L114.942 153.665ZM137.671 173.148C141.49 173.674 145.012 171.005 145.538 167.186C146.065 163.367 143.395 159.845 139.576 159.318L137.671 173.148ZM164.794 160.513C160.942 160.677 157.953 163.933 158.117 167.784C158.282 171.636 161.537 174.625 165.389 174.46L164.794 160.513ZM192.902 170.785C196.662 169.934 199.02 166.196 198.169 162.436C197.318 158.676 193.58 156.318 189.82 157.169L192.902 170.785ZM213.89 149.437C210.336 150.93 208.665 155.022 210.158 158.576C211.651 162.13 215.743 163.801 219.297 162.307L213.89 149.437ZM235.121 154.687C238.538 152.901 239.859 148.683 238.073 145.267C236.286 141.851 232.069 140.529 228.653 142.316L235.121 154.687ZM235.199 138.893C231.782 140.679 230.461 144.897 232.247 148.313C234.034 151.729 238.251 153.05 241.667 151.264L235.199 138.893ZM1.23969 7.46443C0.968592 12.1435 0.896926 16.769 1.01647 21.335L14.9722 20.9696C14.8629 16.7964 14.9282 12.5622 15.1768 8.2719L1.23969 7.46443ZM4.1461 48.8813C6.02907 58.1077 8.71412 66.9903 12.1136 75.4706L25.0717 70.2761C21.9808 62.5657 19.5384 54.4869 17.8247 46.0897L4.1461 48.8813ZM24.7113 100.196C29.6651 108.082 35.2899 115.466 41.4858 122.286L51.8185 112.898C46.1676 106.678 41.0428 99.9493 36.5331 92.7698L24.7113 100.196ZM61.8367 141.103C69.1466 146.772 76.9388 151.805 85.1129 156.136L91.649 143.8C84.1843 139.845 77.0677 135.249 70.3922 130.072L61.8367 141.103ZM110.636 166.945C119.4 169.787 128.445 171.877 137.671 173.148L139.576 159.318C131.177 158.161 122.936 156.258 114.942 153.665L110.636 166.945ZM165.389 174.46C174.517 174.071 183.718 172.864 192.902 170.785L189.82 157.169C181.461 159.061 173.093 160.158 164.794 160.513L165.389 174.46ZM219.297 162.307C223.508 160.538 227.695 158.57 231.848 156.398L225.379 144.027C221.571 146.018 217.739 147.82 213.89 149.437L219.297 162.307ZM231.848 156.398L235.121 154.687L228.653 142.316L225.379 144.027L231.848 156.398ZM241.667 151.264L244.94 149.553L238.472 137.181L235.199 138.893L241.667 151.264Z" fill="#CF56F0" fill-opacity="0.8"/>
</svg>
